<?xml version="1.0" standalone="no"?>
<!DOCTYPE svg PUBLIC "-//W3C//DTD SVG 20010904//EN"
 "http://www.w3.org/TR/2001/REC-SVG-20010904/DTD/svg10.dtd">
<svg version="1.0" xmlns="http://www.w3.org/2000/svg"
 width="333.000000pt" height="333.000000pt" viewBox="0 0 333.000000 333.000000"
 preserveAspectRatio="xMidYMid meet">
<metadata>
Created by potrace 1.11, written by Peter Selinger 2001-2013
</metadata>
<g transform="translate(0.000000,333.000000) scale(0.100000,-0.100000)"
fill="#000000" stroke="none">
<path d="M847 3135 l-24 -25 0 -840 0 -840 221 -221 221 -221 5 786 5 786 345
-345 345 -345 0 -215 1 -216 224 -224 225 -225 212 0 c207 0 212 0 218 21 6
18 -26 55 -201 230 l-209 209 0 271 -1 270 -584 584 -584 584 -197 0 c-196 0
-198 0 -222 -24z"/>
<path d="M2290 3141 c-6 -13 -10 -162 -10 -412 l0 -392 203 -202 203 -202 294
0 c238 -1 298 2 311 13 13 12 16 42 18 176 1 143 -1 163 -16 177 -16 14 -54
16 -285 15 -148 -1 -269 2 -269 5 -1 3 -2 186 -3 407 -1 314 -4 404 -14 417
-11 13 -44 16 -217 16 -192 1 -205 0 -215 -18z"/>
<path d="M13 2296 c-3 -4 82 -96 189 -203 l195 -195 99 0 c55 0 122 1 149 1
l50 1 -2 197 c-1 109 -2 200 -2 203 -1 9 -673 5 -678 -4z"/>
<path d="M445 871 c-28 -6 -30 -10 -30 -49 l-1 -42 43 0 43 0 0 44 c0 48 -9
55 -55 47z"/>
<path d="M277 724 c1 -20 4 -39 7 -41 2 -2 61 -4 132 -4 l128 1 -45 -43 c-24
-23 -83 -75 -129 -116 -47 -41 -93 -82 -103 -91 -17 -16 -17 -18 -1 -54 10
-20 21 -35 25 -34 7 3 172 145 305 263 31 27 34 36 36 93 l3 62 -181 0 -180 0
3 -36z"/>
<path d="M2930 631 c0 -96 -5 -153 -21 -221 -20 -89 -21 -92 -3 -105 29 -22
37 -14 51 51 8 32 18 76 24 97 l10 37 138 0 138 0 -4 -122 c-2 -67 -6 -124 -9
-127 -2 -2 -20 -4 -39 -3 l-35 1 15 -29 c14 -28 20 -30 70 -30 l55 0 1 58 c0
31 2 114 5 184 l4 126 -107 0 c-248 1 -233 -1 -233 28 l0 25 123 -1 c67 -1
137 -1 155 -1 l32 1 0 80 0 80 -185 0 -185 0 0 -129z m308 46 c-3 -21 -7 -22
-123 -22 -116 0 -120 1 -123 22 -4 26 17 30 156 25 89 -3 93 -4 90 -25z"/>
<path d="M2586 722 c-4 -7 -26 -61 -87 -214 l-19 -48 31 -15 30 -16 15 38 c9
21 24 56 34 79 l17 41 64 -1 64 -1 2 -73 c2 -61 -1 -80 -20 -110 -12 -20 -28
-48 -35 -62 -32 -63 -36 -65 -130 -65 l-87 0 -3 -33 c-2 -21 1 -32 10 -33 45
-3 209 -1 212 2 2 2 31 50 64 107 l61 104 0 114 c0 130 13 116 -111 116 -66 0
-67 0 -58 24 8 19 5 26 -13 39 -24 17 -34 19 -41 7z"/>
<path d="M1158 702 c-8 -28 9 -51 32 -47 19 4 20 -2 20 -221 0 -192 2 -224 15
-225 87 -5 90 -4 92 29 1 25 -3 31 -20 34 -21 3 -22 8 -22 111 -1 123 0 124
80 77 62 -37 71 -37 83 -2 9 26 6 28 -62 65 -39 20 -78 37 -86 37 -13 0 -16
14 -16 78 l1 77 -56 3 c-48 3 -57 0 -61 -16z"/>
<path d="M1539 657 c-3 -66 0 -178 5 -185 3 -5 19 -7 35 -4 29 4 30 6 30 56
-2 100 -12 91 103 89 57 0 109 -2 116 -2 9 -1 12 -31 12 -117 l0 -117 -37 -48
c-20 -27 -40 -50 -43 -50 -3 -1 -23 -2 -44 -3 -33 -2 -44 4 -71 32 l-31 34
-32 -16 -33 -17 42 -49 c23 -28 45 -50 48 -51 46 -5 157 -2 166 6 7 6 33 38
58 72 l47 61 0 165 0 165 -185 1 c-185 1 -185 1 -186 -22z"/>
<path d="M750 460 l0 -80 30 0 30 0 0 80 0 80 -30 0 -30 0 0 -80z"/>
<path d="M857 533 c-4 -3 -7 -39 -7 -80 l0 -73 30 0 c31 0 32 2 32 80 0 74 -2
80 -25 80 -13 0 -27 -3 -30 -7z"/>
<path d="M1018 532 c-20 -4 -19 -2 -22 -122 -1 -50 -7 -96 -15 -112 -14 -28
-15 -28 -112 -28 -100 0 -111 -4 -101 -42 4 -16 18 -18 122 -18 l117 0 26 49
c25 44 27 59 27 159 0 113 -4 123 -42 114z"/>
<path d="M486 481 l-55 -46 0 -112 -1 -113 44 0 44 0 0 97 c0 54 1 104 1 111
1 8 18 12 52 12 l50 0 -3 47 c-3 47 -3 47 -40 48 -30 1 -47 -7 -92 -44z"/>
<path d="M2007 512 c-11 -2 -17 -13 -17 -33 0 -16 3 -29 8 -30 4 0 95 -1 202
-2 l194 0 2 27 c0 16 -5 30 -14 33 -15 6 -347 10 -375 5z"/>
<path d="M3016 383 c1 -43 2 -81 3 -85 0 -4 38 -6 84 -5 l82 2 2 83 1 82 -87
0 -87 0 2 -77z m124 -10 c0 -33 -1 -34 -37 -31 -34 3 -37 6 -37 33 0 23 5 31
25 35 37 10 49 1 49 -37z"/>
</g>
</svg>
